<svg width="361" height="365" viewBox="0 0 361 365" fill="none" xmlns="http://www.w3.org/2000/svg">
<path fill-rule="evenodd" clip-rule="evenodd" d="M174.468 0.00304767C221.086 0.217531 266.553 14.7781 300.708 46.5089C336.163 79.4465 359.368 124.373 360.421 172.756C361.495 222.134 340.762 269.219 306.323 304.618C271.39 340.525 224.014 371.287 174.468 363.893C128.139 356.979 106.94 306.28 76.856 270.373C51.0582 239.582 19.6028 212.58 14.3298 172.756C8.34622 127.565 16.0709 78.7724 47.0602 45.3419C78.9186 10.9738 127.607 -0.212551 174.468 0.00304767Z" fill="#112250"/>
<path d="M11.0659 151V154" stroke="#3B507D" stroke-width="2.921" stroke-linecap="round"/>
<path d="M4.32764 152.625L6.77907 155.149" stroke="#3B507D" stroke-width="2.921" stroke-linecap="round"/>
<path d="M1.46045 159.343H4.92673" stroke="#3B507D" stroke-width="2.921" stroke-linecap="round"/>
<path d="M4.04639 166.18L6.49782 163.656" stroke="#3B507D" stroke-width="2.921" stroke-linecap="round"/>
<path d="M11.0659 167V164" stroke="#3B507D" stroke-width="2.921" stroke-linecap="round"/>
<path d="M16.0659 165L14.0659 163" stroke="#3B507D" stroke-width="2.921" stroke-linecap="round"/>
<path d="M20.0659 160H17.0659" stroke="#3B507D" stroke-width="2.921" stroke-linecap="round"/>
<path d="M18.0659 153L16.0659 155" stroke="#3B507D" stroke-width="2.921" stroke-linecap="round"/>
<path d="M172.066 20V22" stroke="#3B507D" stroke-width="2.921" stroke-linecap="round"/>
<path d="M166.066 26H168.066" stroke="#3B507D" stroke-width="2.921" stroke-linecap="round"/>
<path d="M172.066 32V30" stroke="#3B507D" stroke-width="2.921" stroke-linecap="round"/>
<path d="M177.066 26H175.066" stroke="#3B507D" stroke-width="2.921" stroke-linecap="round"/>
<path d="M56.0659 104V107" stroke="#3B507D" stroke-width="2.921" stroke-linecap="round"/>
<path d="M47.0659 113H50.0659" stroke="#3B507D" stroke-width="2.921" stroke-linecap="round"/>
<path d="M56.0659 121V118" stroke="#3B507D" stroke-width="2.921" stroke-linecap="round"/>
<path d="M64.0659 113H61.0659" stroke="#3B507D" stroke-width="2.921" stroke-linecap="round"/>
<path d="M271.32 213.039C273.71 213.039 275.648 214.978 275.648 217.368C275.648 219.76 273.71 221.697 271.32 221.697C268.93 221.697 266.992 219.76 266.992 217.368" stroke="#3B507D" stroke-width="2.921" stroke-linecap="round"/>
<path fill-rule="evenodd" clip-rule="evenodd" d="M291.126 173.764C293.696 172.962 297.635 169.819 298.547 166.438C299.374 169.427 302.84 172.962 305.968 173.229C302.447 174.476 299.081 178.179 298.547 181.089C298.184 178.123 293.528 174.196 291.126 173.764" fill="#EBECEE"/>
<path fill-rule="evenodd" clip-rule="evenodd" d="M27.3374 211.706C28.6227 211.305 30.5915 209.734 31.0474 208.043C31.4608 209.537 33.1935 211.305 34.7573 211.439C32.9974 212.061 31.3148 213.913 31.0474 215.368C30.8657 213.885 28.5378 211.921 27.3374 211.706" fill="#EBECEE"/>
<path fill-rule="evenodd" clip-rule="evenodd" d="M51.1899 72.5972C51.1899 74.4518 49.6872 75.954 47.834 75.954C45.9798 75.954 44.478 74.4518 44.478 72.5972C44.478 70.7434 45.9798 69.2404 47.834 69.2404C49.6872 69.2404 51.1899 70.7434 51.1899 72.5972" fill="#305B81"/>
<path fill-rule="evenodd" clip-rule="evenodd" d="M275.285 81.6107C275.285 84.7093 272.773 87.2212 269.676 87.2212C266.577 87.2212 264.066 84.7093 264.066 81.6107C264.066 78.512 266.577 76.0001 269.676 76.0001C272.773 76.0001 275.285 78.512 275.285 81.6107" fill="#EBECEE"/>
<path fill-rule="evenodd" clip-rule="evenodd" d="M352.979 66.4097C352.979 68.868 350.988 70.8602 348.531 70.8602C346.073 70.8602 344.082 68.868 344.082 66.4097C344.082 63.9513 346.073 61.9591 348.531 61.9591C350.988 61.9591 352.979 63.9513 352.979 66.4097" fill="#EBECEE"/>
<path fill-rule="evenodd" clip-rule="evenodd" d="M113.909 274.268C113.909 275.817 112.654 277.073 111.104 277.073C109.556 277.073 108.3 275.817 108.3 274.268C108.3 272.718 109.556 271.462 111.104 271.462C112.654 271.462 113.909 272.718 113.909 274.268Z" stroke="#3B507D" stroke-width="2.921" stroke-linecap="round"/>
<path fill-rule="evenodd" clip-rule="evenodd" d="M112.241 51.0317C112.241 52.8863 110.738 54.3885 108.885 54.3885C107.031 54.3885 105.529 52.8863 105.529 51.0317C105.529 49.178 107.031 47.6749 108.885 47.6749C110.738 47.6749 112.241 49.178 112.241 51.0317Z" stroke="#3B507D" stroke-width="2.921" stroke-linecap="round"/>
<path fill-rule="evenodd" clip-rule="evenodd" d="M197.843 305.336C195.699 306.152 193.299 305.075 192.483 302.931C191.667 300.785 192.744 298.384 194.889 297.569C197.033 296.753 199.433 297.829 200.249 299.975C201.065 302.12 199.988 304.52 197.843 305.336Z" stroke="#3B507D" stroke-width="2.921" stroke-linecap="round"/>
<path fill-rule="evenodd" clip-rule="evenodd" d="M196.565 226H114.56C108.789 226 104.064 221.261 104.064 215.47V98.5275C104.064 92.7362 108.789 88 114.56 88H196.565C202.339 88 207.064 92.7362 207.064 98.5275V215.47C207.064 221.261 202.339 226 196.565 226" fill="#C9CBD5"/>
<path fill-rule="evenodd" clip-rule="evenodd" d="M189.565 231H107.56C101.789 231 97.064 226.261 97.064 220.47V103.527C97.064 97.7362 101.789 93 107.56 93H189.565C195.339 93 200.064 97.7362 200.064 103.527V220.47C200.064 226.261 195.339 231 189.565 231" fill="#B0C3EE"/>
<path fill-rule="evenodd" clip-rule="evenodd" d="M182.756 234.947H100.582C94.7983 234.947 90.064 230.228 90.064 224.461V108.003C90.064 102.235 94.7983 97.5187 100.582 97.5187H182.756C188.543 97.5187 193.277 102.235 193.277 108.003V224.461C193.277 230.228 188.543 234.947 182.756 234.947" fill="#485CC4"/>
<path fill-rule="evenodd" clip-rule="evenodd" d="M182.756 234.947H100.582C94.7983 234.947 90.064 230.228 90.064 224.461V108.003C90.064 102.235 94.7983 97.5187 100.582 97.5187H182.756C188.543 97.5187 193.277 102.235 193.277 108.003V224.461C193.277 230.228 188.543 234.947 182.756 234.947" fill="#F1F2F7"/>
<path fill-rule="evenodd" clip-rule="evenodd" d="M170.912 133H110.216C108.483 133 107.064 131.65 107.064 130.001C107.064 128.35 108.483 127 110.216 127H170.912C172.645 127 174.064 128.35 174.064 130.001C174.064 131.65 172.645 133 170.912 133" fill="#C9CBD5"/>
<path fill-rule="evenodd" clip-rule="evenodd" d="M170.912 151H110.216C108.483 151 107.064 149.65 107.064 148.001C107.064 146.35 108.483 145 110.216 145H170.912C172.645 145 174.064 146.35 174.064 148.001C174.064 149.65 172.645 151 170.912 151" fill="#C9CBD5"/>
<path fill-rule="evenodd" clip-rule="evenodd" d="M170.912 169H110.216C108.483 169 107.064 167.65 107.064 166.001C107.064 164.352 108.483 163 110.216 163H170.912C172.645 163 174.064 164.352 174.064 166.001C174.064 167.65 172.645 169 170.912 169" fill="#C9CBD5"/>
<path fill-rule="evenodd" clip-rule="evenodd" d="M170.912 187H110.216C108.483 187 107.064 185.65 107.064 184.001C107.064 182.35 108.483 181 110.216 181H170.912C172.645 181 174.064 182.35 174.064 184.001C174.064 185.65 172.645 187 170.912 187" fill="#C9CBD5"/>
<path fill-rule="evenodd" clip-rule="evenodd" d="M141.898 205H110.23C108.489 205 107.064 203.65 107.064 202.001C107.064 200.35 108.489 199 110.23 199H141.898C143.639 199 145.064 200.35 145.064 202.001C145.064 203.65 143.639 205 141.898 205" fill="#C9CBD5"/>
<path fill-rule="evenodd" clip-rule="evenodd" d="M205.819 181.737C193.682 193.871 174.893 195.24 161.252 185.872C159.509 184.653 157.85 183.284 156.303 181.737C155.506 180.943 154.755 180.124 154.048 179.261C152.633 177.538 151.393 175.701 150.378 173.803C148.589 170.597 147.372 167.195 146.708 163.679C144.565 152.651 147.769 140.781 156.303 132.252C164.856 123.697 176.728 120.514 187.758 122.636C191.272 123.321 194.677 124.537 197.884 126.305C199.785 127.343 201.597 128.583 203.322 129.997C204.183 130.702 205.002 131.455 205.796 132.252C207.346 133.799 208.735 135.455 209.932 137.201C219.304 150.837 217.933 169.625 205.819 181.737" fill="#01204E" fill-opacity="0.1"/>
<path fill-rule="evenodd" clip-rule="evenodd" d="M202.423 179.347C189.796 191.976 169.334 191.973 156.705 179.347C144.092 166.734 144.092 146.27 156.721 133.643C169.334 121.03 189.796 121.03 202.409 133.643C215.035 146.27 215.035 166.734 202.423 179.347M208.903 127.156C192.696 110.948 166.432 110.948 150.225 127.156C134.02 143.361 134.006 169.64 150.211 185.848C164.961 200.594 188.081 201.924 204.342 189.816C205.931 188.632 207.46 187.305 208.919 185.848C210.376 184.389 211.704 182.859 212.885 181.271C224.993 165.007 223.651 141.904 208.903 127.156" fill="#C9CBD5"/>
<path fill-rule="evenodd" clip-rule="evenodd" d="M272.686 246.942L272.006 247.622C267.504 252.126 260.133 252.126 255.629 247.622L214.064 206.057L231.121 189L272.686 230.565C277.19 235.069 277.19 242.438 272.686 246.942" fill="#3B507D"/>
<path fill-rule="evenodd" clip-rule="evenodd" d="M213.781 180L226.064 192.283L217.344 201L205.064 188.717C206.685 187.509 208.243 186.154 209.734 184.668C211.221 183.182 212.575 181.621 213.781 180" fill="#C9CBD5"/>
<path fill-rule="evenodd" clip-rule="evenodd" d="M272.064 230.054L255.115 247L252.064 243.946L269.01 227L272.064 230.054Z" fill="#112250"/>
<path fill-rule="evenodd" clip-rule="evenodd" d="M232.064 189.587L214.651 207L212.064 204.413L229.477 187L232.064 189.587Z" fill="#112250"/>
<path fill-rule="evenodd" clip-rule="evenodd" d="M194.064 129.299L151.36 172C149.752 169.118 148.659 166.059 148.064 162.898L184.961 126C188.121 126.618 191.182 127.709 194.064 129.299" fill="white" fill-opacity="0.5"/>
<path fill-rule="evenodd" clip-rule="evenodd" d="M208.064 139.448L161.897 183C160.244 181.912 158.67 180.687 157.202 179.302C156.447 178.59 155.733 177.859 155.064 177.087L201.793 133C202.612 133.633 203.389 134.307 204.142 135.02C205.609 136.404 206.93 137.886 208.064 139.448" fill="white" fill-opacity="0.5"/>
</svg>
